<?xml version="1.0" encoding="UTF-8" standalone="no"?>
<!-- Created with Inkscape (http://www.inkscape.org/) -->

<svg
   width="92.44265mm"
   height="15.00116mm"
   viewBox="0 0 92.442655 15.00116"
   version="1.1"
   id="svg945"
   inkscape:version="1.1.2 (b8e25be833, 2022-02-05)"
   sodipodi:docname="logo.svg"
   xmlns:inkscape="http://www.inkscape.org/namespaces/inkscape"
   xmlns:sodipodi="http://sodipodi.sourceforge.net/DTD/sodipodi-0.dtd"
   xmlns="http://www.w3.org/2000/svg"
   xmlns:svg="http://www.w3.org/2000/svg">
  <sodipodi:namedview
     id="namedview947"
     pagecolor="#505050"
     bordercolor="#eeeeee"
     borderopacity="1"
     inkscape:pageshadow="0"
     inkscape:pageopacity="0"
     inkscape:pagecheckerboard="0"
     inkscape:document-units="mm"
     showgrid="false"
     width="88.40775mm"
     height="14.38336mm"
     inkscape:zoom="4"
     inkscape:cx="189.25"
     inkscape:cy="56.125"
     inkscape:window-width="2880"
     inkscape:window-height="1541"
     inkscape:window-x="3229"
     inkscape:window-y="-11"
     inkscape:window-maximized="1"
     inkscape:current-layer="layer1" />
  <defs
     id="defs942">
    <rect
       x="244.65895"
       y="595.38391"
       width="323.1478"
       height="25.102291"
       id="rect2653" />
    <clipPath
       id="clip0">
      <rect
         x="921"
         y="664"
         width="41"
         height="46"
         id="rect1006" />
    </clipPath>
    <rect
       x="244.65895"
       y="595.38391"
       width="337.64349"
       height="114.19775"
       id="rect2653-1" />
    <clipPath
       id="clip0-5">
      <rect
         x="939"
         y="445"
         width="42"
         height="47"
         id="rect58003" />
    </clipPath>
    <clipPath
       clipPathUnits="userSpaceOnUse"
       id="clipPath58252">
      <path
         d="M 0,1.2207e-4 H 960 V 540.00012 H 0 Z"
         clip-rule="evenodd"
         id="path58250" />
    </clipPath>
    <clipPath
       clipPathUnits="userSpaceOnUse"
       id="clipPath58262">
      <path
         d="M 1.7506e-5,540 H 960 V 6.1035e-5 H 9.1206e-5"
         clip-rule="evenodd"
         id="path58260" />
    </clipPath>
    <clipPath
       clipPathUnits="userSpaceOnUse"
       id="clipPath58272">
      <path
         d="M 1.4305e-5,0 H 960.00001 V 540 H 1.4305e-5 Z"
         clip-rule="evenodd"
         id="path58270" />
    </clipPath>
    <clipPath
       clipPathUnits="userSpaceOnUse"
       id="clipPath58284">
      <path
         d="M 1.4305e-5,0 H 960.00001 V 540 H 1.4305e-5 Z"
         clip-rule="evenodd"
         id="path58282" />
    </clipPath>
    <clipPath
       clipPathUnits="userSpaceOnUse"
       id="clipPath58296">
      <path
         d="M 1.4305e-5,0 H 960.00001 V 540 H 1.4305e-5 Z"
         clip-rule="evenodd"
         id="path58294" />
    </clipPath>
    <clipPath
       clipPathUnits="userSpaceOnUse"
       id="clipPath58308">
      <path
         d="M 1.4305e-5,0 H 960.00001 V 540 H 1.4305e-5 Z"
         clip-rule="evenodd"
         id="path58306" />
    </clipPath>
    <clipPath
       clipPathUnits="userSpaceOnUse"
       id="clipPath58320">
      <path
         d="M 1.4305e-5,0 H 960.00001 V 540 H 1.4305e-5 Z"
         clip-rule="evenodd"
         id="path58318" />
    </clipPath>
  </defs>
  <g
     inkscape:label="Layer 1"
     inkscape:groupmode="layer"
     id="layer1"
     transform="translate(-53.81076,-170.17672)">
    <g
       id="g58256"
       transform="matrix(0.29235459,-0.00958549,-0.00958549,-0.29235459,-37.365862,268.00712)">
      <g
         id="g58258"
         clip-path="url(#clipPath58262)">
        <path
           d="m 489.57,311.33 -0.36,-11.21 -8.89,-5.13 -9.89,5.29 0.36,11.21 8.89,5.13 z"
           style="fill:none;stroke:#000000;stroke-width:1;stroke-linecap:butt;stroke-linejoin:miter;stroke-miterlimit:10;stroke-dasharray:none;stroke-opacity:1"
           id="path58264" />
      </g>
    </g>
    <g
       id="g58266"
       transform="matrix(0.29251169,0,0,-0.29251169,-40.372561,260.8215)">
      <g
         id="g58268"
         clip-path="url(#clipPath58272)">
        <g
           aria-label="ADVANCED"
           transform="matrix(1,0,0,-1,323.33,260.47)"
           id="text58276"
           style="font-weight:100;font-size:20.04px;font-family:Raleway;-inkscape-font-specification:Raleway-Thin">
          <path
             d="m 6.5731203,-14.228401 h 0.36072 L 13.126201,0 h -0.44088 L 10.46088,-5.0901602 H 3.0260401 L 0.80160004,0 H 0.36072002 Z M 10.28052,-5.4909603 6.7534803,-13.647241 3.1863601,-5.4909603 Z"
             id="path1872" />
          <path
             d="m 18.55704,0 v -14.228401 h 4.56912 q 1.68336,0 2.92584,0.56112 1.262521,0.56112 2.084161,1.52304 0.84168,0.96192 1.24248,2.2645205 0.42084,1.2825601 0.42084,2.7454802 0,1.62324 -0.48096,2.9458801 -0.46092,1.3026001 -1.32264,2.2444801 Q 27.134161,-1.02204 25.89168,-0.50100002 24.6492,0 23.12616,0 Z m 10.841641,-7.1342403 q 0,-1.4629201 -0.42084,-2.6853601 -0.4008,-1.2224406 -1.2024,-2.1042006 -0.8016,-0.9018 -1.983961,-1.4028 -1.16232,-0.501 -2.66532,-0.501 h -4.16832 v 13.42680098 h 4.16832 q 1.54308,0 2.7054,-0.50100002 1.182361,-0.52104006 1.963921,-1.42284006 0.8016,-0.9018 1.2024,-2.1242401 0.4008,-1.2424801 0.4008,-2.6853601 z"
             id="path1874" />
          <path
             d="m 34.649161,-14.228401 5.99196,13.72740098 5.97192,-13.72740098 h 0.44088 L 40.861561,0 h -0.44088 l -6.19236,-14.228401 z"
             id="path1876" />
          <path
             d="m 56.993759,-14.228401 h 0.36072 L 63.54684,0 H 63.10596 L 60.88152,-5.0901602 H 53.446679 L 51.222239,0 h -0.44088 z m 3.707401,8.7374407 -3.527041,-8.1562807 -3.56712,8.1562807 z"
             id="path1878" />
          <path
             d="M 69.378481,-13.446841 V 0 h -0.4008 v -14.228401 h 0.3006 L 80.160002,-0.58116003 V -14.228401 h 0.4008 V 0 h -0.46092 z"
             id="path1880" />
          <path
             d="m 86.552763,-7.2144003 q 0,-1.2825601 0.44088,-2.5450801 0.46092,-1.2625206 1.3026,-2.2645206 0.86172,-1.02204 2.1042,-1.64328 1.26252,-0.64128 2.865721,-0.64128 1.9038,0 3.22644,0.88176 1.32264,0.86172 1.96392,2.22444 l -0.38076,0.12024 q -0.42084,-0.78156 -0.98196,-1.32264 -0.54108,-0.54108 -1.2024,-0.86172 -0.64128,-0.34068 -1.34268,-0.48096 -0.68136,-0.16032 -1.36272,-0.16032 -1.482961,0 -2.645281,0.6012 -1.16232,0.58116 -1.96392,1.54308 -0.8016,0.961921 -1.22244,2.1843606 -0.4008,1.2024 -0.4008,2.4248401 0,1.36272 0.48096,2.6052001 0.501,1.24248 1.34268,2.2044001 0.86172,0.94188 2.004,1.50300006 1.14228,0.56112003 2.464921,0.56112003 0.7014,0 1.44288,-0.18036001 0.74148,-0.18036001 1.42284,-0.54107998 0.7014,-0.3607201 1.28256,-0.9218401 0.6012,-0.58116 1.02204,-1.3627201 l 0.38076,0.1002001 q -0.36072,0.8016 -0.98196,1.42284 -0.62124,0.62124 -1.38276,1.04208007 -0.76152,0.42084002 -1.62324,0.64128003 -0.84168,0.20040001 -1.64328,0.20040001 -1.442881,0 -2.665321,-0.64128003 -1.22244,-0.64128008 -2.1042,-1.66332008 -0.86172,-1.04208 -1.36272,-2.3446801 -0.48096,-1.3226401 -0.48096,-2.6853601 z"
             id="path1882" />
          <path
             d="M 113.84724,-0.40080002 V 0 h -9.33864 v -14.228401 h 9.15828 v 0.4008 h -8.75748 v 6.3526807 h 7.67532 v 0.4008 h -7.67532 v 6.67332028 z"
             id="path1884" />
          <path
             d="m 119.87928,0 v -14.228401 h 4.56912 q 1.68336,0 2.92584,0.56112 1.26252,0.56112 2.08416,1.52304 0.84168,0.96192 1.24248,2.2645205 0.42084,1.2825601 0.42084,2.7454802 0,1.62324 -0.48096,2.9458801 -0.46092,1.3026001 -1.32264,2.2444801 -0.86172,0.9218401 -2.1042,1.44288008 Q 125.97144,0 124.4484,0 Z m 10.84164,-7.1342403 q 0,-1.4629201 -0.42084,-2.6853601 -0.4008,-1.2224406 -1.2024,-2.1042006 -0.8016,-0.9018 -1.98396,-1.4028 -1.16232,-0.501 -2.66532,-0.501 h -4.16832 v 13.42680098 h 4.16832 q 1.54308,0 2.7054,-0.50100002 1.18236,-0.52104006 1.96392,-1.42284006 0.8016,-0.9018 1.2024,-2.1242401 0.4008,-1.2424801 0.4008,-2.6853601 z"
             id="path1886" />
        </g>
      </g>
    </g>
    <g
       id="g58278"
       transform="matrix(0.29251169,0,0,-0.29251169,-40.372561,260.8215)">
      <g
         id="g58280"
         clip-path="url(#clipPath58284)">
        <text
           transform="matrix(1,0,0,-1,465.91,260.47)"
           style="font-variant:normal;font-weight:800;font-size:20.04px;font-family:Raleway;-inkscape-font-specification:Raleway-ExtraBold;writing-mode:lr-tb;fill:#000000;fill-opacity:1;fill-rule:nonzero;stroke:none"
           id="text58288"><tspan
             x="0 16.773479 33.186241 49.47876 67.695122 83.025719 99.799202 108.77712 123.76704 141.86316"
             y="0"
             sodipodi:role="line"
             id="tspan58286">CRYOSCIENC</tspan></text>
      </g>
    </g>
    <g
       id="g1018">
      <g
         id="g58290"
         transform="matrix(0.29251169,0,0,-0.29251169,-40.372561,260.8215)">
        <g
           id="g58292"
           clip-path="url(#clipPath58296)">
          <text
             transform="matrix(1,0,0,-1,624.7,260.47)"
             style="font-variant:normal;font-weight:800;font-size:20.04px;font-family:Raleway;-inkscape-font-specification:Raleway-ExtraBold;writing-mode:lr-tb;fill:#000000;fill-opacity:1;fill-rule:nonzero;stroke:none"
             id="text58300"><tspan
               x="0"
               y="0"
               id="tspan58298">E</tspan></text>
        </g>
      </g>
      <g
         id="g58304"
         clip-path="url(#clipPath58308)"
         transform="matrix(0.29251169,0,0,-0.29251169,-40.372561,260.8215)">
        <g
           aria-label="CRYOSCIENC"
           transform="matrix(1,0,0,-1,466.06,260.47)"
           id="text58312"
           style="font-weight:800;font-size:20.04px;font-family:Raleway;-inkscape-font-specification:Raleway-ExtraBold">
          <path
             d="m 0.54108002,-7.2344403 q 0,-1.2825601 0.48095998,-2.5450801 0.4809601,-1.2825606 1.4028001,-2.2845606 0.9218401,-1.002 2.2444801,-1.62324 1.3226401,-0.62124 3.0060002,-0.62124 2.004,0 3.4669206,0.86172 1.48296,0.86172 2.2044,2.24448 L 10.8216,-9.4388404 q -0.24048,-0.5611201 -0.62124,-0.9218396 -0.3607196,-0.38076 -0.8015996,-0.601201 -0.44088,-0.24048 -0.9018,-0.32064 -0.46092,-0.1002 -0.9018001,-0.1002 -0.94188,0 -1.64328,0.38076 -0.7014001,0.380761 -1.1623201,0.981961 -0.46092,0.6011996 -0.68136,1.3627196 -0.22044,0.76152 -0.22044,1.5430801 0,0.84168 0.26052,1.62324 0.26052,0.7815601 0.74148,1.3827601 0.501,0.6012 1.1823601,0.9619201 0.7014,0.34068 1.56312,0.34068 0.4408801,0 0.9018001,-0.1002 0.48096,-0.12024 0.9018,-0.34068 0.4408801,-0.2404801 0.8015996,-0.6012001 0.36072,-0.38076 0.58116,-0.92184 l 2.685361,1.5831601 q -0.32064,0.78156 -0.96192,1.4028 -0.62124,0.62124 -1.44288,1.04208007 -0.821641,0.42084002 -1.7434806,0.64128003 -0.92184,0.22044001 -1.8036001,0.22044001 -1.54308,0 -2.8456801,-0.62124003 Q 3.4268402,-1.1422801 2.4849601,-2.1843601 1.5631201,-3.2264401 1.04208,-4.5490802 0.54108002,-5.8717203 0.54108002,-7.2344403 Z"
             id="path1889" />
          <path
             d="m 18.1362,0 v -14.228401 h 6.4128 q 1.002,0 1.84368,0.42084 0.86172,0.42084 1.48296,1.1022 0.62124,0.68136 0.96192,1.54308 0.36072,0.861721 0.36072,1.7434806 0,0.66132 -0.16032,1.28256 -0.16032,0.6012001 -0.46092,1.1422801 -0.3006,0.54108 -0.74148,0.98196 -0.42084,0.42084 -0.96192,0.7214401 L 29.99988,0 h -3.7074 L 23.56704,-4.5891602 H 21.42276 V 0 Z m 3.28656,-7.4548803 h 3.006 q 0.58116,0 1.002,-0.5410801 0.42084,-0.56112 0.42084,-1.42284 0,-0.8817596 -0.48096,-1.4027996 -0.48096,-0.521041 -1.04208,-0.521041 h -2.9058 z"
             id="path1891" />
          <path
             d="m 36.753361,-14.228401 3.06612,6.5330406 3.106201,-6.5330406 h 3.58716 l -5.07012,9.3787208 V 0 h -3.266521 v -4.8897602 l -4.98996,-9.3386408 z"
             id="path1893" />
          <path
             d="m 57.07392,0.12024001 q -1.58316,0 -2.88576,-0.62124003 -1.3026,-0.62124008 -2.22444,-1.62324008 -0.92184,-1.02204 -1.44288,-2.3246401 -0.501,-1.3026001 -0.501,-2.6853601 0,-1.4028001 0.52104,-2.7054001 0.54108,-1.3026006 1.48296,-2.2845606 0.96192,-1.002 2.26452,-1.58316 1.3026,-0.6012 2.84568,-0.6012 1.58316,0 2.88576,0.62124 1.3026,0.62124 2.22444,1.64328 0.92184,1.02204 1.42284,2.3246406 0.501,1.3026 0.501,2.6452801 0,1.4028 -0.54108,2.7054001 -0.52104,1.3026001 -1.46292,2.3046001 Q 61.2222,-1.08216 59.9196,-0.48096002 58.617,0.12024001 57.07392,0.12024001 Z m -3.7074,-7.21440031 q 0,0.82164 0.24048,1.6032 0.24048,0.7615201 0.7014,1.3627201 0.48096,0.6012 1.18236,0.9619201 0.7014,0.36072 1.6032,0.36072 0.94188,0 1.64328,-0.38076 0.7014,-0.3807601 1.16232,-0.9819601 0.46092,-0.62124 0.68136,-1.3827601 0.24048,-0.78156 0.24048,-1.58316 0,-0.8216401 -0.24048,-1.5831601 -0.24048,-0.78156 -0.72144,-1.3627196 -0.48096,-0.6012 -1.18236,-0.941881 -0.68136,-0.36072 -1.58316,-0.36072 -0.94188,0 -1.64328,0.38076 -0.68136,0.360721 -1.16232,0.961921 -0.46092,0.6011996 -0.7014,1.3827596 -0.22044,0.76152 -0.22044,1.5631201 z"
             id="path1895" />
          <path
             d="m 77.594882,-10.06008 q -0.06012,-0.08016 -0.42084,-0.3006 -0.36072,-0.22044 -0.9018,-0.46092 -0.54108,-0.240481 -1.18236,-0.420841 -0.64128,-0.18036 -1.28256,-0.18036 -1.76352,0 -1.76352,1.182361 0,0.3607195 0.18036,0.6011996 0.2004,0.24048 0.56112,0.44088 0.38076,0.18036 0.94188,0.34068 0.56112,0.16032 1.3026,0.36072 1.02204,0.28056 1.84368,0.62124 0.82164,0.3206401 1.38276,0.8216401 0.58116,0.48096 0.88176,1.18236 0.32064,0.7014001 0.32064,1.6833601 0,1.2024001 -0.46092,2.0440801 -0.44088,0.82164 -1.18236,1.34268006 -0.74148,0.50100003 -1.7034,0.74148004 -0.96192,0.22044001 -1.98396,0.22044001 -0.78156,0 -1.6032,-0.12024001 -0.82164,-0.12024 -1.6032,-0.34068001 -0.78156,-0.24048001 -1.52304,-0.56112003 -0.72144,-0.32064006 -1.34268,-0.74148006 l 1.44288,-2.8657201 q 0.08016,0.1002 0.52104,0.38076 0.44088,0.28056 1.08216,0.56112 0.66132,0.2805601 1.46292,0.5010001 0.8016,0.22044 1.62324,0.22044 1.74348,0 1.74348,-1.0621201 0,-0.4008 -0.26052,-0.66132 -0.26052,-0.26052 -0.72144,-0.46092 -0.46092,-0.22044 -1.1022,-0.4008 -0.62124,-0.1803601 -1.36272,-0.4008001 -0.98196,-0.3006 -1.7034,-0.64128 -0.72144,-0.36072 -1.2024,-0.82164 -0.46092,-0.4609201 -0.7014,-1.0621201 -0.22044,-0.6012 -0.22044,-1.4028 0,-1.1222396 0.42084,-1.9839606 0.42084,-0.86172 1.14228,-1.44288 0.72144,-0.6012 1.66332,-0.9018 0.96192,-0.3006 2.02404,-0.3006 0.74148,0 1.46292,0.14028 0.72144,0.14028 1.38276,0.36072 0.66132,0.22044 1.22244,0.501 0.58116,0.28056 1.06212,0.56112 z"
             id="path1897" />
          <path
             d="m 83.566799,-7.2344403 q 0,-1.2825601 0.48096,-2.5450801 0.48096,-1.2825606 1.4028,-2.2845606 0.92184,-1.002 2.24448,-1.62324 1.32264,-0.62124 3.006,-0.62124 2.004,0 3.46692,0.86172 1.48296,0.86172 2.2044,2.24448 l -2.52504,1.7635206 q -0.24048,-0.5611201 -0.62124,-0.9218396 -0.36072,-0.38076 -0.8016,-0.601201 -0.44088,-0.24048 -0.9018,-0.32064 -0.46092,-0.1002 -0.9018,-0.1002 -0.94188,0 -1.64328,0.38076 -0.7014,0.380761 -1.16232,0.981961 -0.46092,0.6011996 -0.68136,1.3627196 -0.22044,0.76152 -0.22044,1.5430801 0,0.84168 0.26052,1.62324 0.26052,0.7815601 0.74148,1.3827601 0.501,0.6012 1.18236,0.9619201 0.7014,0.34068 1.56312,0.34068 0.44088,0 0.9018,-0.1002 0.48096,-0.12024 0.9018,-0.34068 0.44088,-0.2404801 0.8016,-0.6012001 0.36072,-0.38076 0.58116,-0.92184 l 2.68536,1.5831601 q -0.32064,0.78156 -0.96192,1.4028 -0.62124,0.62124 -1.44288,1.04208007 -0.82164,0.42084002 -1.74348,0.64128003 -0.92184,0.22044001 -1.8036,0.22044001 -1.54308,0 -2.84568,-0.62124003 -1.28256,-0.64128008 -2.22444,-1.68336008 -0.92184,-1.04208 -1.44288,-2.3647201 -0.501,-1.3226401 -0.501,-2.6853601 z"
             id="path1899" />
          <path
             d="m 101.16192,0 v -14.228401 h 3.28656 V 0 Z"
             id="path1901" />
          <path
             d="M 120.1398,-2.8857601 V 0 h -9.99996 v -14.228401 h 9.8196 v 2.88576 h -6.53304 v 2.7655206 h 5.6112 v 2.6653201 h -5.6112 v 3.0260402 z"
             id="path1903" />
          <path
             d="M 128.41632,-8.1362404 V 0 h -3.28656 v -14.228401 h 2.56512 l 6.63324,8.3566807 v -8.3566807 h 3.28656 V 0 h -2.64528 z"
             id="path1905" />
          <path
             d="m 142.40424,-7.2344403 q 0,-1.2825601 0.48096,-2.5450801 0.48096,-1.2825606 1.4028,-2.2845606 0.92184,-1.002 2.24448,-1.62324 1.32264,-0.62124 3.006,-0.62124 2.004,0 3.46692,0.86172 1.48296,0.86172 2.2044,2.24448 l -2.52504,1.7635206 q -0.24048,-0.5611201 -0.62124,-0.9218396 -0.36072,-0.38076 -0.8016,-0.601201 -0.44088,-0.24048 -0.9018,-0.32064 -0.46092,-0.1002 -0.9018,-0.1002 -0.94188,0 -1.64328,0.38076 -0.7014,0.380761 -1.16232,0.981961 -0.46092,0.6011996 -0.68136,1.3627196 -0.22044,0.76152 -0.22044,1.5430801 0,0.84168 0.26052,1.62324 0.26052,0.7815601 0.74148,1.3827601 0.501,0.6012 1.18236,0.9619201 0.7014,0.34068 1.56312,0.34068 0.44088,0 0.9018,-0.1002 0.48096,-0.12024 0.9018,-0.34068 0.44088,-0.2404801 0.8016,-0.6012001 0.36072,-0.38076 0.58116,-0.92184 l 2.68536,1.5831601 q -0.32064,0.78156 -0.96192,1.4028 -0.62124,0.62124 -1.44288,1.04208007 -0.82164,0.42084002 -1.74348,0.64128003 -0.92184,0.22044001 -1.8036,0.22044001 -1.54308,0 -2.84568,-0.62124003 -1.28256,-0.64128008 -2.22444,-1.68336008 -0.92184,-1.04208 -1.44288,-2.3647201 -0.501,-1.3226401 -0.501,-2.6853601 z"
             id="path1907" />
        </g>
      </g>
      <g
         id="g58314"
         transform="matrix(0.29251169,0,0,-0.29251169,-40.372561,260.8215)">
        <g
           id="g58316"
           clip-path="url(#clipPath58320)">
          <g
             aria-label="E"
             transform="matrix(1,0,0,-1,624.94,260.47)"
             id="text58324"
             style="font-weight:800;font-size:20.04px;font-family:Raleway;-inkscape-font-specification:Raleway-ExtraBold">
            <path
               d="M 11.362681,-2.8857601 V 0 H 1.3627201 v -14.228401 h 9.8196009 v 2.88576 H 4.6492802 v 2.7655206 H 10.26048 v 2.6653201 H 4.6492802 v 3.0260402 z"
               id="path1910" />
          </g>
        </g>
      </g>
    </g>
  </g>
</svg>
