<?xml version="1.0" encoding="UTF-8" standalone="no"?>
<!-- Created with Inkscape (http://www.inkscape.org/) -->

<svg
   width="112.28255mm"
   height="18.891781mm"
   viewBox="0 0 112.28255 18.891781"
   version="1.1"
   id="svg945"
   xmlns="http://www.w3.org/2000/svg"
   xmlns:svg="http://www.w3.org/2000/svg">
  <defs
     id="defs942">
    <rect
       x="244.65895"
       y="595.38391"
       width="323.1478"
       height="25.102291"
       id="rect2653" />
    <clipPath
       id="clip0">
      <rect
         x="921"
         y="664"
         width="41"
         height="46"
         id="rect1006" />
    </clipPath>
    <rect
       x="244.65895"
       y="595.38391"
       width="337.64349"
       height="114.19775"
       id="rect2653-1" />
    <clipPath
       id="clip0-5">
      <rect
         x="939"
         y="445"
         width="42"
         height="47"
         id="rect58003" />
    </clipPath>
    <clipPath
       clipPathUnits="userSpaceOnUse"
       id="clipPath58252">
      <path
         d="M 0,1.2207e-4 H 960 V 540.00012 H 0 Z"
         clip-rule="evenodd"
         id="path58250" />
    </clipPath>
    <clipPath
       clipPathUnits="userSpaceOnUse"
       id="clipPath58262">
      <path
         d="M 1.7506e-5,540 H 960 V 6.1035e-5 H 9.1206e-5"
         clip-rule="evenodd"
         id="path58260" />
    </clipPath>
    <clipPath
       clipPathUnits="userSpaceOnUse"
       id="clipPath58272">
      <path
         d="M 1.4305e-5,0 H 960.00001 V 540 H 1.4305e-5 Z"
         clip-rule="evenodd"
         id="path58270" />
    </clipPath>
    <clipPath
       clipPathUnits="userSpaceOnUse"
       id="clipPath58284">
      <path
         d="M 1.4305e-5,0 H 960.00001 V 540 H 1.4305e-5 Z"
         clip-rule="evenodd"
         id="path58282" />
    </clipPath>
    <clipPath
       clipPathUnits="userSpaceOnUse"
       id="clipPath58296">
      <path
         d="M 1.4305e-5,0 H 960.00001 V 540 H 1.4305e-5 Z"
         clip-rule="evenodd"
         id="path58294" />
    </clipPath>
    <clipPath
       clipPathUnits="userSpaceOnUse"
       id="clipPath58308">
      <path
         d="M 1.4305e-5,0 H 960.00001 V 540 H 1.4305e-5 Z"
         clip-rule="evenodd"
         id="path58306" />
    </clipPath>
    <clipPath
       clipPathUnits="userSpaceOnUse"
       id="clipPath58320">
      <path
         d="M 1.4305e-5,0 H 960.00001 V 540 H 1.4305e-5 Z"
         clip-rule="evenodd"
         id="path58318" />
    </clipPath>
  </defs>
  <g
     id="layer1"
     transform="translate(-50.810759,-173.39173)">
    <g
       id="g58256"
       transform="matrix(0.35277777,0,0,-0.35277777,-62.380133,286.29)">
      <g
         id="g58258"
         clip-path="url(#clipPath58262)">
        <path
           d="m 489.57,311.33 -0.36,-11.21 -8.89,-5.13 -9.89,5.29 0.36,11.21 8.89,5.13 z"
           style="fill:none;stroke:#000000;stroke-width:1;stroke-linecap:butt;stroke-linejoin:miter;stroke-miterlimit:10;stroke-dasharray:none;stroke-opacity:1"
           id="path58264" />
      </g>
    </g>
    <g
       id="g58266"
       transform="matrix(0.35277777,0,0,-0.35277777,-62.380133,283.11498)">
      <g
         id="g58268"
         clip-path="url(#clipPath58272)">
        <text
           transform="matrix(1,0,0,-1,323.33,260.47)"
           style="font-variant:normal;font-weight:100;font-size:20.04px;font-family:Raleway;-inkscape-font-specification:Raleway-Thin;writing-mode:lr-tb;fill:#000000;fill-opacity:1;fill-rule:nonzero;stroke:none"
           id="text58276"><tspan
             x="0 16.57308 33.847561 50.420639 66.993721 85.590843 102.52464 117.89532"
             y="0"
             id="tspan58274">ADVANCED</tspan></text>
      </g>
    </g>
    <g
       id="g58278"
       transform="matrix(0.35277777,0,0,-0.35277777,-62.380133,283.11498)">
      <g
         id="g58280"
         clip-path="url(#clipPath58284)">
        <text
           transform="matrix(1,0,0,-1,465.91,260.47)"
           style="font-variant:normal;font-weight:800;font-size:20.04px;font-family:Raleway;-inkscape-font-specification:Raleway-ExtraBold;writing-mode:lr-tb;fill:#000000;fill-opacity:1;fill-rule:nonzero;stroke:none"
           id="text58288"><tspan
             x="0 16.773479 33.186241 49.47876 67.695122 83.025719 99.799202 108.77712 123.76704 141.86316"
             y="0"
             id="tspan58286">CRYOSCIENC</tspan></text>
      </g>
    </g>
    <g
       id="g58290"
       transform="matrix(0.35277777,0,0,-0.35277777,-62.380133,283.11498)">
      <g
         id="g58292"
         clip-path="url(#clipPath58296)">
        <text
           transform="matrix(1,0,0,-1,624.7,260.47)"
           style="font-variant:normal;font-weight:800;font-size:20.04px;font-family:Raleway;-inkscape-font-specification:Raleway-ExtraBold;writing-mode:lr-tb;fill:#000000;fill-opacity:1;fill-rule:nonzero;stroke:none"
           id="text58300"><tspan
             x="0"
             y="0"
             id="tspan58298">E</tspan></text>
      </g>
    </g>
    <g
       id="g58302"
       transform="matrix(0.35277777,0,0,-0.35277777,-62.380133,283.11498)">
      <g
         id="g58304"
         clip-path="url(#clipPath58308)">
        <text
           transform="matrix(1,0,0,-1,466.06,260.47)"
           style="font-variant:normal;font-weight:800;font-size:20.04px;font-family:Raleway;-inkscape-font-specification:Raleway-ExtraBold;writing-mode:lr-tb;fill:#000000;fill-opacity:1;fill-rule:nonzero;stroke:none"
           id="text58312"><tspan
             x="0 16.773479 33.186241 49.47876 67.695122 83.025719 99.799202 108.77712 123.76704 141.86316"
             y="0"
             id="tspan58310">CRYOSCIENC</tspan></text>
      </g>
    </g>
    <g
       id="g58314"
       transform="matrix(0.35277777,0,0,-0.35277777,-62.380133,283.11498)">
      <g
         id="g58316"
         clip-path="url(#clipPath58320)">
        <text
           transform="matrix(1,0,0,-1,624.94,260.47)"
           style="font-variant:normal;font-weight:800;font-size:20.04px;font-family:Raleway;-inkscape-font-specification:Raleway-ExtraBold;writing-mode:lr-tb;fill:#000000;fill-opacity:1;fill-rule:nonzero;stroke:none"
           id="text58324"><tspan
             x="0"
             y="0"
             id="tspan58322">E</tspan></text>
      </g>
    </g>
  </g>
</svg>
